<?xml version="1.0" standalone="no"?><!DOCTYPE svg PUBLIC "-//W3C//DTD SVG 1.1//EN" "http://www.w3.org/Graphics/SVG/1.1/DTD/svg11.dtd"><svg class="icon" width="200px" height="200.00px" viewBox="0 0 1024 1024" version="1.1" xmlns="http://www.w3.org/2000/svg"><path d="M668.407311 790.932737A142.991421 142.991421 0 0 0 557.006092 737.539724c-78.983464 0-143.230138 64.262589-143.230138 143.230138s64.246674 143.230138 143.230138 143.230138 143.230138-64.262589 143.230138-143.230138V351.518588l318.289196-95.486759V0l-350.118115 105.035435v685.897302zM557.006092 992.17108c-61.4139 0-111.401218-49.971404-111.401218-111.401218s49.987318-111.401218 111.401218-111.401218 111.401218 49.971404 111.401219 111.401218-49.987318 111.401218-111.401219 111.401218z m143.230138-863.454929l286.460276-85.938083v189.573045l-286.460276 85.938083V128.716151zM63.657839 244.191471h541.091633v31.828919H63.657839z"  /><path d="M63.657839 403.336069h541.091633v31.828919H63.657839zM63.657839 562.480666h541.091633v31.82892H63.657839z"  /></svg>