<?xml version="1.0" standalone="no"?><!DOCTYPE svg PUBLIC "-//W3C//DTD SVG 1.1//EN" "http://www.w3.org/Graphics/SVG/1.1/DTD/svg11.dtd"><svg class="icon" width="200px" height="200.00px" viewBox="0 0 1024 1024" version="1.1" xmlns="http://www.w3.org/2000/svg"><path d="M852 64.2c-4.4 0-10.2 1.2-10.2 1.2L406.6 131.8C379 139.2 354 166 352 195L352 768l-122 0 0-0.2c-56 0-102.2 40-102.2 96s46.2 96 102.6 96l72.4 0c30.6 0 57.8-13.8 76.6-35 0.2-0.2 0.6-0.2 0.8-0.4 1.2-1.2 2-3 3-4.2 2.6-3.2 4.8-6.4 6.8-10C409.2 882 416 844.6 416 828L416 364l416-76c0 0 0 272 0 384l-121 0c-56.6 0-102.4 39.8-102.4 96s45.8 96 102.4 96l74.4 0c36.4 0 68.2-12 86.4-42 0 0 0.2 0 0.4 0 18-24 24-60.4 24-109.8 0-49.6 0-605.6 0-605.6C896 83.2 876.2 64.2 852 64.2z" /></svg>